<?xml version="1.0" standalone="no"?>
<!DOCTYPE svg PUBLIC "-//W3C//DTD SVG 20010904//EN"
 "http://www.w3.org/TR/2001/REC-SVG-20010904/DTD/svg10.dtd">
<svg version="1.0" xmlns="http://www.w3.org/2000/svg"
 width="2288.000000pt" height="2288.000000pt" viewBox="0 0 2288.000000 2288.000000"
 preserveAspectRatio="xMidYMid meet">
<metadata>
Created by potrace 1.14, written by Peter Selinger 2001-2017
</metadata>
<g transform="translate(0.000000,2288.000000) scale(0.100000,-0.100000)"
fill="#000000" stroke="none">
<path d="M4335 16344 c-480 -74 -822 -164 -1200 -316 -799 -321 -1490 -838
-2033 -1518 -477 -599 -824 -1346 -971 -2090 -71 -360 -94 -599 -95 -975 0
-403 34 -716 119 -1101 134 -601 414 -1233 779 -1751 731 -1041 1852 -1765
3106 -2008 299 -58 427 -67 571 -39 390 74 675 346 777 742 16 63 17 310 17
4152 l0 4085 -22 81 c-97 364 -354 623 -711 715 -75 19 -272 33 -337 23z m343
-480 c106 -51 195 -141 248 -249 39 -80 39 -80 42 -222 2 -79 2 -143 0 -143
-3 0 -33 12 -69 26 -102 42 -157 55 -225 56 -86 0 -133 -27 -205 -120 -65 -85
-100 -112 -148 -112 -18 0 -126 21 -240 47 -190 43 -217 47 -346 47 -127 1
-144 -1 -182 -21 -60 -33 -87 -65 -144 -176 -65 -126 -89 -197 -89 -263 0 -47
3 -55 32 -80 l33 -27 147 6 c109 5 149 3 155 -6 4 -6 7 -68 8 -137 0 -103 3
-131 18 -153 53 -81 230 22 357 208 26 39 55 77 64 84 20 17 74 10 151 -19 87
-34 113 -26 237 72 166 131 278 170 378 133 25 -9 52 -17 60 -19 13 -2 15 -41
18 -259 l2 -255 -32 -11 c-79 -26 -156 -34 -350 -35 -205 -1 -206 -1 -233 -26
-15 -14 -52 -76 -81 -139 -68 -142 -126 -222 -257 -347 -168 -161 -372 -296
-594 -390 -210 -89 -315 -163 -389 -271 -74 -108 -103 -219 -104 -393 0 -108
-22 -208 -61 -287 -58 -120 -94 -111 -168 43 -67 138 -126 227 -194 291 -75
71 -128 97 -202 98 -84 0 -128 -29 -275 -182 -262 -274 -365 -460 -314 -568
37 -79 181 -132 334 -123 127 7 177 53 214 193 22 85 44 110 94 109 52 -1 117
-42 124 -78 6 -30 -15 -79 -70 -165 -67 -102 -61 -115 82 -170 43 -17 88 -38
99 -48 31 -28 47 -77 47 -145 0 -107 19 -244 40 -302 27 -72 76 -116 129 -116
61 0 147 51 276 166 192 170 268 214 370 214 94 -1 117 -14 311 -183 81 -71
139 -107 171 -107 10 0 51 16 92 35 40 19 87 35 104 35 66 0 135 -69 212 -209
22 -41 50 -80 62 -88 13 -8 66 -26 120 -40 183 -46 263 -104 368 -263 l65
-100 0 -1280 0 -1280 -112 -203 c-132 -239 -164 -276 -265 -306 -38 -11 -107
-25 -155 -30 -49 -6 -97 -15 -108 -21 -27 -15 -35 -54 -20 -103 17 -58 81
-186 128 -255 60 -89 73 -119 75 -180 l2 -57 -65 -3 c-36 -1 -123 8 -194 20
l-130 23 -13 79 c-25 147 -82 237 -298 466 -156 166 -207 240 -234 340 -24 89
-25 118 -16 622 8 420 3 483 -41 575 -34 70 -90 118 -231 193 -213 114 -276
154 -348 225 -111 109 -154 223 -155 409 0 233 95 584 207 759 35 54 34 71 -9
135 -84 123 -302 296 -465 368 -28 13 -82 28 -118 35 -93 16 -121 44 -192 187
-69 140 -124 201 -196 222 -41 11 -70 11 -179 0 -103 -11 -156 -11 -252 -2
-283 27 -576 139 -652 251 -37 55 -32 94 29 213 139 272 108 475 -94 618 -38
26 -98 60 -134 75 -57 24 -65 31 -59 49 3 12 35 98 70 192 188 505 443 939
801 1359 132 156 384 405 543 537 138 115 382 290 514 370 l95 57 38 -16 c22
-10 67 -17 108 -17 61 -1 78 3 133 33 93 50 154 107 150 140 -2 16 -12 30 -26
36 -12 5 -21 14 -19 18 6 20 451 197 463 184 3 -3 -13 -46 -35 -96 -60 -134
-53 -175 27 -152 70 21 126 87 217 258 l38 71 83 21 c100 25 120 26 128 5 13
-33 5 -133 -14 -189 -25 -73 -25 -85 1 -85 67 0 223 96 350 217 148 140 156
145 212 139 27 -3 83 -22 125 -42z"/>
<path d="M18283 16335 c-202 -36 -382 -134 -529 -286 -112 -116 -189 -251
-236 -415 l-23 -79 0 -4110 0 -4110 23 -84 c45 -165 118 -295 237 -420 165
-174 391 -280 635 -297 270 -20 952 143 1423 340 1226 512 2209 1505 2689
2716 234 592 342 1122 355 1746 14 685 -96 1300 -349 1940 -72 183 -235 516
-336 685 -758 1272 -2032 2136 -3489 2364 -173 27 -289 30 -400 10z m2634
-1377 c150 -127 397 -379 528 -537 243 -293 447 -609 612 -948 51 -105 93
-194 93 -197 0 -12 -43 -6 -77 11 -49 23 -92 94 -159 258 -59 146 -94 205
-121 205 -21 0 -14 -72 26 -244 32 -137 30 -166 -10 -166 -29 0 -69 -23 -104
-60 -65 -68 -142 -91 -200 -60 -35 19 -51 51 -65 130 -22 125 -83 223 -184
294 -121 86 -239 121 -406 120 -166 -1 -271 -31 -536 -150 -78 -35 -177 -73
-220 -85 -95 -26 -203 -28 -259 -5 -89 38 -165 145 -165 235 0 42 5 56 31 85
74 85 219 120 494 121 105 0 225 -2 267 -4 74 -5 80 -3 162 37 151 75 304 210
357 314 20 39 38 62 56 69 16 6 86 7 182 3 155 -7 231 -2 231 16 0 10 -54 31
-259 99 -204 68 -227 82 -246 144 -21 70 -47 107 -121 173 -77 67 -98 106 -84
154 9 33 46 80 62 80 4 0 56 -41 115 -92z m-449 -31 c35 -55 45 -80 132 -307
54 -141 70 -192 65 -216 -15 -85 -132 -172 -216 -161 -69 9 -71 15 -64 146 6
95 3 138 -14 235 -27 151 -27 247 -1 304 27 59 60 59 98 -1z m-209 -321 c39
-21 53 -59 59 -158 4 -86 4 -87 -26 -118 -34 -34 -75 -39 -120 -16 -54 28
-112 110 -112 158 0 34 34 84 81 118 46 33 76 37 118 16z m939 -1357 c53 -26
91 -82 151 -224 97 -233 136 -265 316 -265 142 0 282 51 404 149 93 75 110 71
199 -47 55 -72 61 -86 95 -212 66 -248 110 -490 139 -770 19 -187 16 -697 -5
-888 -64 -568 -216 -1089 -461 -1584 -79 -158 -273 -489 -318 -541 l-28 -32 8
60 c4 33 7 89 7 125 0 61 -2 68 -43 120 -27 35 -52 85 -69 135 -24 73 -27 94
-27 235 -1 181 9 213 84 267 90 66 138 113 145 143 10 45 -23 106 -121 227
-160 197 -256 361 -290 496 -20 76 -14 123 25 207 69 148 62 156 -159 163
-201 6 -228 16 -386 142 -54 44 -103 40 -229 -17 -185 -84 -300 -107 -435 -88
-138 19 -259 69 -405 165 -237 157 -358 363 -358 610 0 180 60 334 172 445 69
69 112 90 187 90 98 1 246 51 302 103 38 35 62 92 62 146 0 39 -9 67 -41 128
-23 43 -51 96 -63 118 -29 54 -29 144 -1 175 54 59 162 75 276 40 128 -39 195
-26 478 92 171 72 275 107 315 108 16 0 50 -10 74 -21z m-3276 -2577 c9 -15
43 -53 76 -84 99 -95 161 -99 334 -23 128 57 227 60 288 8 17 -14 48 -60 69
-102 22 -42 48 -84 58 -94 11 -10 49 -23 84 -29 51 -9 70 -17 95 -43 37 -39
79 -159 79 -226 0 -40 -7 -54 -58 -121 -32 -42 -96 -118 -143 -169 -143 -157
-188 -282 -150 -413 9 -32 41 -105 71 -162 57 -110 80 -193 69 -240 -14 -58
-35 -86 -82 -106 -40 -18 -55 -20 -126 -12 -45 5 -153 9 -241 9 -180 0 -248
-15 -286 -63 -31 -40 -21 -93 45 -224 76 -153 74 -178 -17 -224 -55 -28 -161
-129 -172 -163 -3 -12 -11 -21 -16 -21 -5 0 -9 489 -9 1265 0 696 4 1265 8
1265 4 0 15 -12 24 -28z"/>
<path d="M11252 16044 c-56 -28 -92 -67 -117 -127 -13 -32 -15 -513 -15 -4478
0 -3342 3 -4451 12 -4480 15 -51 69 -114 122 -142 33 -18 57 -22 131 -22 80 0
95 3 137 28 53 31 94 79 114 134 11 32 13 793 14 4466 0 3229 -3 4440 -11
4472 -14 56 -79 131 -134 156 -28 13 -64 19 -121 19 -67 0 -89 -4 -132 -26z"/>
<path d="M9739 15353 c-51 -8 -132 -66 -164 -117 l-30 -49 -3 -3751 c-2 -2830
0 -3761 9 -3794 15 -53 81 -129 134 -153 64 -29 187 -26 252 6 54 27 94 71
119 130 12 30 14 533 14 3789 l0 3754 -28 53 c-55 107 -164 153 -303 132z"/>
<path d="M12887 15349 c-21 -5 -50 -15 -66 -23 -40 -21 -96 -87 -112 -132 -12
-33 -14 -638 -14 -3789 0 -3440 1 -3753 16 -3786 25 -54 74 -104 126 -129 40
-19 60 -21 138 -18 80 3 97 6 133 31 56 37 98 97 111 158 8 35 11 1158 11
3758 0 4175 8 3776 -79 3862 -68 69 -161 92 -264 68z"/>
<path d="M8102 14655 c-53 -27 -83 -59 -118 -125 -18 -34 -19 -127 -19 -3115
l0 -3080 21 -45 c25 -54 64 -94 119 -123 57 -30 193 -30 250 0 51 27 99 77
122 128 17 38 18 177 21 3070 2 1955 -1 3053 -7 3094 -13 84 -52 147 -115 186
-43 26 -60 30 -135 33 -77 3 -92 0 -139 -23z"/>
<path d="M14410 14653 c-61 -31 -113 -92 -130 -151 -7 -25 -10 -1019 -10
-3093 0 -2715 2 -3060 15 -3100 33 -96 110 -154 221 -165 119 -13 226 43 273
140 l21 42 0 3085 c0 2965 -1 3086 -19 3124 -20 45 -71 99 -116 123 -18 9 -63
17 -115 20 -78 3 -90 1 -140 -25z"/>
<path d="M6522 13934 c-53 -26 -83 -58 -118 -124 -18 -34 -19 -109 -19 -2375
0 -2596 -6 -2367 65 -2449 97 -110 289 -115 393 -11 84 84 77 -148 75 2475
l-3 2335 -22 41 c-25 48 -83 101 -129 120 -19 8 -68 14 -112 14 -64 0 -87 -5
-130 -26z"/>
<path d="M15994 13941 c-22 -10 -57 -35 -77 -56 -73 -75 -67 131 -67 -2459 l0
-2331 24 -50 c29 -64 82 -110 148 -130 108 -32 214 -10 283 59 82 83 75 -147
73 2476 l-3 2335 -22 40 c-28 52 -78 100 -125 119 -53 23 -181 21 -234 -3z"/>
</g>
</svg>
